<svg width="397" height="27" viewBox="0 0 397 27" fill="none" xmlns="http://www.w3.org/2000/svg">
<path d="M24.52 26.6C22.9467 26.6 21.4 26.5067 19.88 26.32C18.3867 26.16 16.9333 25.9067 15.52 25.56L17.76 18.96C18.7733 19.2267 19.8667 19.4533 21.04 19.64C22.2133 19.8 23.32 19.88 24.36 19.88C25.2133 19.88 25.96 19.8667 26.6 19.84C27.24 19.7867 27.8533 19.72 28.44 19.64L28.76 17.64L25.44 17.32C22.8267 17.0533 21.0133 16.4667 20 15.56C18.9867 14.6267 18.48 13.36 18.48 11.76C18.48 11.04 18.56 10.24 18.72 9.36C19.1467 7.09333 19.76 5.30667 20.56 4C21.3867 2.69333 22.56 1.77333 24.08 1.24C25.6 0.679999 27.6133 0.399998 30.12 0.399998C31.5867 0.399998 33.0267 0.479999 34.44 0.64C35.8533 0.799999 37.2133 1.05333 38.52 1.4L36.44 7.8C35.4 7.61333 34.4133 7.46667 33.48 7.36C32.5467 7.25333 31.5067 7.2 30.36 7.2C29.7467 7.2 29.2267 7.21333 28.8 7.24C28.3733 7.26667 27.8533 7.32 27.24 7.4L26.92 9.36L29.6 9.64C31.52 9.82667 33.0267 10.2 34.12 10.76C35.2133 11.2933 35.9867 11.9733 36.44 12.8C36.8933 13.6 37.12 14.5333 37.12 15.6C37.12 15.92 37.0933 16.2533 37.04 16.6C37.0133 16.92 36.9733 17.2667 36.92 17.64C36.5467 19.8 35.9467 21.4933 35.12 22.72C34.2933 23.9467 33.32 24.84 32.2 25.4C31.08 25.9333 29.8533 26.2667 28.52 26.4C27.2133 26.5333 25.88 26.6 24.52 26.6ZM19.92 2.64L4.48 1H21.68C21.3333 1.21333 21.0133 1.46667 20.72 1.76C20.4533 2.02667 20.1867 2.32 19.92 2.64ZM18.08 6.6L1.48 4.84H18.68L18.08 6.6ZM17.32 10.48L0.36 8.68H17.6C17.5733 8.76 17.5467 8.84 17.52 8.92C17.52 9 17.52 9.08 17.52 9.16C17.4933 9.34667 17.4533 9.54667 17.4 9.76C17.3733 9.97333 17.3467 10.2133 17.32 10.48ZM17.64 14.32L0.72 12.52H17.32C17.3467 12.8667 17.3733 13.1867 17.4 13.48C17.4533 13.7467 17.5333 14.0267 17.64 14.32ZM22.92 18.16L1.76 16.36H19C19.88 17.2133 21.1867 17.8133 22.92 18.16ZM15.44 21.96L1.08 20.2H16.04L15.44 21.96ZM14.16 25.84L0.4 24.08H14.76L14.16 25.84ZM47.0741 26L51.4741 1H63.7941C65.7407 1 67.1407 1.33333 67.9941 2C68.8474 2.66667 69.2741 3.69333 69.2741 5.08C69.2741 7.21333 68.7941 8.92 67.8341 10.2C66.9007 11.4533 65.8474 12.2267 64.6741 12.52L64.6341 12.76C65.9407 13 66.8607 13.5467 67.3941 14.4C67.9541 15.2533 68.2341 16.2933 68.2341 17.52C68.2341 19.0133 67.9541 20.4133 67.3941 21.72C66.8607 23 66.0341 24.04 64.9141 24.84C63.8207 25.6133 62.4341 26 60.7541 26H47.0741ZM49.9141 2.8L32.9941 1H50.2341L49.9141 2.8ZM49.2741 6.64L32.3141 4.84H49.5541L49.2741 6.64ZM57.4341 10.2H59.7941C60.4874 10.2 60.9674 9.93333 61.2341 9.4C61.5007 8.86667 61.6341 8.26667 61.6341 7.6C61.6341 7.25333 61.5541 6.98667 61.3941 6.8C61.2341 6.58667 60.9407 6.48 60.5141 6.48H58.1141L57.4341 10.2ZM48.5941 10.48L31.6341 8.68H48.9141L48.5941 10.48ZM47.9141 14.32L30.9541 12.52H48.2341L47.9141 14.32ZM55.6741 20.12H58.6341C59.3541 20.12 59.8741 19.84 60.1941 19.28C60.5141 18.72 60.6741 18.0667 60.6741 17.32C60.6741 16.9467 60.5807 16.64 60.3941 16.4C60.2074 16.16 59.8741 16.04 59.3941 16.04H56.3941L55.6741 20.12ZM47.2341 18.16L30.2741 16.36H47.5541L47.2341 18.16ZM46.5541 22L29.5941 20.2H46.8741L46.5541 22ZM45.8741 25.88L28.9141 24.08H46.1941L45.8741 25.88ZM78.9306 5.28C79.144 4.26667 79.4106 3.45333 79.7306 2.84C80.0506 2.2 80.5306 1.73333 81.1706 1.44C81.8373 1.14667 82.7306 1 83.8506 1C85.184 1 86.104 1.2 86.6106 1.6C87.1173 2 87.3706 2.66667 87.3706 3.6C87.3706 4.74667 87.1573 5.82667 86.7306 6.84C86.3306 7.82667 85.7973 8.82667 85.1306 9.84L81.6106 15.28L78.4106 14.12L80.6506 8.36C79.984 8.22667 79.504 8 79.2106 7.68C78.944 7.36 78.8106 6.92 78.8106 6.36C78.8106 6.04 78.8506 5.68 78.9306 5.28ZM77.7706 5.04C77.7173 5.30667 77.6773 5.54667 77.6506 5.76C77.624 5.97333 77.6106 6.17333 77.6106 6.36V6.64L64.6506 4.84H77.8106C77.784 4.89333 77.7706 4.96 77.7706 5.04ZM79.0906 9.12L78.5706 10.44L65.9306 8.68H78.4106C78.4906 8.78667 78.584 8.88 78.6906 8.96C78.824 9.01333 78.9573 9.06667 79.0906 9.12ZM77.0506 14.28L64.5306 12.52H77.7306L77.0506 14.28ZM105.731 26.6C104.158 26.6 102.611 26.5067 101.091 26.32C99.5976 26.16 98.1443 25.9067 96.7309 25.56L98.9709 18.96C99.9843 19.2267 101.078 19.4533 102.251 19.64C103.424 19.8 104.531 19.88 105.571 19.88C106.424 19.88 107.171 19.8667 107.811 19.84C108.451 19.7867 109.064 19.72 109.651 19.64L109.971 17.64L106.651 17.32C104.038 17.0533 102.224 16.4667 101.211 15.56C100.198 14.6267 99.6909 13.36 99.6909 11.76C99.6909 11.04 99.7709 10.24 99.9309 9.36C100.358 7.09333 100.971 5.30667 101.771 4C102.598 2.69333 103.771 1.77333 105.291 1.24C106.811 0.679999 108.824 0.399998 111.331 0.399998C112.798 0.399998 114.238 0.479999 115.651 0.64C117.064 0.799999 118.424 1.05333 119.731 1.4L117.651 7.8C116.611 7.61333 115.624 7.46667 114.691 7.36C113.758 7.25333 112.718 7.2 111.571 7.2C110.958 7.2 110.438 7.21333 110.011 7.24C109.584 7.26667 109.064 7.32 108.451 7.4L108.131 9.36L110.811 9.64C112.731 9.82667 114.238 10.2 115.331 10.76C116.424 11.2933 117.198 11.9733 117.651 12.8C118.104 13.6 118.331 14.5333 118.331 15.6C118.331 15.92 118.304 16.2533 118.251 16.6C118.224 16.92 118.184 17.2667 118.131 17.64C117.758 19.8 117.158 21.4933 116.331 22.72C115.504 23.9467 114.531 24.84 113.411 25.4C112.291 25.9333 111.064 26.2667 109.731 26.4C108.424 26.5333 107.091 26.6 105.731 26.6ZM101.131 2.64L85.6909 1H102.891C102.544 1.21333 102.224 1.46667 101.931 1.76C101.664 2.02667 101.398 2.32 101.131 2.64ZM99.2909 6.6L82.6909 4.84H99.8909L99.2909 6.6ZM98.5309 10.48L81.5709 8.68H98.8109C98.7843 8.76 98.7576 8.84 98.7309 8.92C98.7309 9 98.7309 9.08 98.7309 9.16C98.7043 9.34667 98.6643 9.54667 98.6109 9.76C98.5843 9.97333 98.5576 10.2133 98.5309 10.48ZM98.8509 14.32L81.9309 12.52H98.5309C98.5576 12.8667 98.5843 13.1867 98.6109 13.48C98.6643 13.7467 98.7443 14.0267 98.8509 14.32ZM104.131 18.16L82.9709 16.36H100.211C101.091 17.2133 102.398 17.8133 104.131 18.16ZM96.6509 21.96L82.2909 20.2H97.2509L96.6509 21.96ZM95.3709 25.84L81.6109 24.08H95.9709L95.3709 25.84ZM144.301 26L148.701 1H160.701C162.434 1 163.794 1.28 164.781 1.84C165.767 2.37333 166.461 3.12 166.861 4.08C167.287 5.04 167.501 6.12 167.501 7.32C167.501 8.04 167.421 8.93333 167.261 10C167.127 11.0667 166.861 12.1733 166.461 13.32C166.061 14.4667 165.501 15.5467 164.781 16.56C164.061 17.5733 163.141 18.4 162.021 19.04C160.901 19.6533 159.527 19.96 157.901 19.96H152.941L151.901 26H144.301ZM147.141 2.8L130.221 1H147.461L147.141 2.8ZM146.461 6.64L129.541 4.84H146.781L146.461 6.64ZM154.061 13.56H155.821C156.594 13.56 157.247 13.48 157.781 13.32C158.314 13.1333 158.647 12.6533 158.781 11.88C158.967 10.8933 159.087 10.1867 159.141 9.76C159.221 9.30667 159.261 9.01333 159.261 8.88C159.287 8.74667 159.301 8.66667 159.301 8.64C159.301 8.08 159.074 7.73333 158.621 7.6C158.167 7.46667 157.594 7.4 156.901 7.4H155.141L154.061 13.56ZM145.781 10.48L128.861 8.68H146.101L145.781 10.48ZM145.101 14.32L128.181 12.52H145.421L145.101 14.32ZM144.461 18.16L127.501 16.36H144.781L144.461 18.16ZM143.781 22L126.821 20.2H144.101L143.781 22ZM143.101 25.88L126.141 24.08H143.421L143.101 25.88ZM184.563 26.6C181.096 26.6 178.656 25.92 177.243 24.56C175.856 23.2 175.163 21.1867 175.163 18.52C175.163 17.7733 175.203 16.9867 175.283 16.16C175.389 15.3333 175.523 14.4533 175.683 13.52C176.189 10.6133 176.936 8.2 177.923 6.28C178.909 4.33333 180.296 2.86666 182.083 1.88C183.869 0.893332 186.229 0.399998 189.163 0.399998C192.629 0.399998 195.056 1.08 196.443 2.44C197.856 3.77333 198.563 5.78667 198.563 8.48C198.563 9.57333 198.469 10.8267 198.283 12.24C198.123 13.6533 197.829 15.0933 197.403 16.56C197.003 18.0267 196.456 19.4133 195.763 20.72C195.069 22.0267 194.203 23.1467 193.163 24.08C192.096 25.0133 190.856 25.6667 189.443 26.04C188.029 26.4133 186.403 26.6 184.563 26.6ZM179.283 2.32L167.043 1H181.083C180.763 1.18667 180.456 1.38667 180.163 1.6C179.869 1.81333 179.576 2.05333 179.283 2.32ZM176.483 6.44L161.523 4.84H177.283C177.149 5.10666 177.016 5.37333 176.883 5.64C176.749 5.88 176.616 6.14667 176.483 6.44ZM182.723 19.76H185.883C186.763 19.76 187.483 19.6533 188.043 19.44C188.629 19.2267 189.016 18.6267 189.203 17.64L191.043 7.24H187.843C186.963 7.24 186.243 7.34667 185.683 7.56C185.123 7.77333 184.749 8.37333 184.563 9.36L182.723 19.76ZM175.163 10.32L159.643 8.68H175.643L175.163 10.32ZM174.403 14.2L158.683 12.52H174.683L174.563 13.32C174.536 13.48 174.509 13.64 174.483 13.8C174.456 13.9333 174.429 14.0667 174.403 14.2ZM174.003 18.04L158.243 16.36H174.123C174.043 16.9467 174.003 17.5067 174.003 18.04ZM174.323 21.88L158.763 20.2H174.043C174.096 20.4933 174.136 20.7867 174.163 21.08C174.216 21.3467 174.269 21.6133 174.323 21.88ZM176.443 25.56L162.603 24.08H175.243C175.589 24.6933 175.989 25.1867 176.443 25.56ZM207.66 26L212.06 1H224.06C225.793 1 227.153 1.26667 228.14 1.8C229.153 2.33333 229.86 3.06667 230.26 4C230.687 4.90667 230.9 5.94667 230.9 7.12C230.9 7.84 230.82 8.69333 230.66 9.68C230.527 10.6667 230.273 11.68 229.9 12.72C229.527 13.7333 228.993 14.68 228.3 15.56C227.633 16.44 226.78 17.1467 225.74 17.68L228.38 26H220.02L218.18 18.56H216.54L215.26 26H207.66ZM210.5 2.8L193.58 1H210.82L210.5 2.8ZM209.82 6.64L192.9 4.84H210.14L209.82 6.64ZM217.62 12.4H219.38C220.153 12.4 220.807 12.32 221.34 12.16C221.873 11.9733 222.207 11.4933 222.34 10.72C222.473 10.0533 222.553 9.54667 222.58 9.2C222.633 8.85333 222.66 8.66667 222.66 8.64C222.66 8.05333 222.407 7.70667 221.9 7.6C221.42 7.46667 220.793 7.4 220.02 7.4H218.5L217.62 12.4ZM209.14 10.48L192.22 8.68H209.46L209.14 10.48ZM208.46 14.32L191.54 12.52H208.78L208.46 14.32ZM207.82 18.16L190.86 16.36H208.14L207.82 18.16ZM207.14 22L190.18 20.2H207.46L207.14 22ZM206.46 25.88L189.5 24.08H206.78L206.46 25.88ZM244.377 26L247.617 7.4H242.137L243.297 1H261.897L260.737 7.4H255.217L251.977 26H244.377ZM241.697 2.8L224.777 1H242.017L241.697 2.8ZM241.057 6.64L224.097 4.84H241.337L241.057 6.64ZM245.857 10.48L228.897 8.68H246.177L245.857 10.48ZM245.177 14.32L228.217 12.52H245.497L245.177 14.32ZM244.497 18.16L227.537 16.36H244.817L244.497 18.16ZM243.817 22L226.857 20.2H244.137L243.817 22ZM243.137 25.88L226.177 24.08H243.457L243.137 25.88ZM268.519 26L272.919 1H288.519L286.399 7.4H279.359L278.799 10.76H285.279L284.199 16.72H277.719L276.119 26H268.519ZM271.359 2.8L254.439 1H271.679L271.359 2.8ZM270.719 6.64L253.759 4.84H270.999L270.719 6.64ZM270.039 10.48L253.079 8.68H270.359L270.039 10.48ZM269.359 14.32L252.399 12.52H269.679L269.359 14.32ZM268.679 18.16L251.719 16.36H268.999L268.679 18.16ZM267.999 22L251.039 20.2H268.319L267.999 22ZM267.319 25.88L250.359 24.08H267.639L267.319 25.88ZM304.68 26.6C301.213 26.6 298.773 25.92 297.36 24.56C295.973 23.2 295.28 21.1867 295.28 18.52C295.28 17.7733 295.32 16.9867 295.4 16.16C295.507 15.3333 295.64 14.4533 295.8 13.52C296.307 10.6133 297.053 8.2 298.04 6.28C299.027 4.33333 300.413 2.86666 302.2 1.88C303.987 0.893332 306.347 0.399998 309.28 0.399998C312.747 0.399998 315.173 1.08 316.56 2.44C317.973 3.77333 318.68 5.78667 318.68 8.48C318.68 9.57333 318.587 10.8267 318.4 12.24C318.24 13.6533 317.947 15.0933 317.52 16.56C317.12 18.0267 316.573 19.4133 315.88 20.72C315.187 22.0267 314.32 23.1467 313.28 24.08C312.213 25.0133 310.973 25.6667 309.56 26.04C308.147 26.4133 306.52 26.6 304.68 26.6ZM299.4 2.32L287.16 1H301.2C300.88 1.18667 300.573 1.38667 300.28 1.6C299.987 1.81333 299.693 2.05333 299.4 2.32ZM296.6 6.44L281.64 4.84H297.4C297.267 5.10666 297.133 5.37333 297 5.64C296.867 5.88 296.733 6.14667 296.6 6.44ZM302.84 19.76H306C306.88 19.76 307.6 19.6533 308.16 19.44C308.747 19.2267 309.133 18.6267 309.32 17.64L311.16 7.24H307.96C307.08 7.24 306.36 7.34667 305.8 7.56C305.24 7.77333 304.867 8.37333 304.68 9.36L302.84 19.76ZM295.28 10.32L279.76 8.68H295.76L295.28 10.32ZM294.52 14.2L278.8 12.52H294.8L294.68 13.32C294.653 13.48 294.627 13.64 294.6 13.8C294.573 13.9333 294.547 14.0667 294.52 14.2ZM294.12 18.04L278.36 16.36H294.24C294.16 16.9467 294.12 17.5067 294.12 18.04ZM294.44 21.88L278.88 20.2H294.16C294.213 20.4933 294.253 20.7867 294.28 21.08C294.333 21.3467 294.387 21.6133 294.44 21.88ZM296.56 25.56L282.72 24.08H295.36C295.707 24.6933 296.107 25.1867 296.56 25.56ZM327.777 26L332.177 1H339.777L336.497 19.6H344.097L342.977 26H327.777ZM330.617 2.8L313.697 1H330.937L330.617 2.8ZM329.977 6.64L313.017 4.84H330.257L329.977 6.64ZM329.297 10.48L312.337 8.68H329.617L329.297 10.48ZM328.617 14.32L311.657 12.52H328.937L328.617 14.32ZM327.937 18.16L310.977 16.36H328.257L327.937 18.16ZM327.257 22L310.297 20.2H327.577L327.257 22ZM326.577 25.88L309.617 24.08H326.897L326.577 25.88ZM352.66 26L357.06 1H364.66L360.26 26H352.66ZM355.5 2.8L338.58 1H355.82L355.5 2.8ZM354.86 6.64L337.9 4.84H355.14L354.86 6.64ZM354.18 10.48L337.22 8.68H354.5L354.18 10.48ZM353.5 14.32L336.54 12.52H353.82L353.5 14.32ZM352.82 18.16L335.86 16.36H353.14L352.82 18.16ZM352.14 22L335.18 20.2H352.46L352.14 22ZM351.46 25.88L334.5 24.08H351.78L351.46 25.88ZM382.336 26.6C378.87 26.6 376.43 25.92 375.016 24.56C373.63 23.2 372.936 21.1867 372.936 18.52C372.936 17.7733 372.976 16.9867 373.056 16.16C373.163 15.3333 373.296 14.4533 373.456 13.52C373.963 10.6133 374.71 8.2 375.696 6.28C376.683 4.33333 378.07 2.86666 379.856 1.88C381.643 0.893332 384.003 0.399998 386.936 0.399998C390.403 0.399998 392.83 1.08 394.216 2.44C395.63 3.77333 396.336 5.78667 396.336 8.48C396.336 9.57333 396.243 10.8267 396.056 12.24C395.896 13.6533 395.603 15.0933 395.176 16.56C394.776 18.0267 394.23 19.4133 393.536 20.72C392.843 22.0267 391.976 23.1467 390.936 24.08C389.87 25.0133 388.63 25.6667 387.216 26.04C385.803 26.4133 384.176 26.6 382.336 26.6ZM377.056 2.32L364.816 1H378.856C378.536 1.18667 378.23 1.38667 377.936 1.6C377.643 1.81333 377.35 2.05333 377.056 2.32ZM374.256 6.44L359.296 4.84H375.056C374.923 5.10666 374.79 5.37333 374.656 5.64C374.523 5.88 374.39 6.14667 374.256 6.44ZM380.496 19.76H383.656C384.536 19.76 385.256 19.6533 385.816 19.44C386.403 19.2267 386.79 18.6267 386.976 17.64L388.816 7.24H385.616C384.736 7.24 384.016 7.34667 383.456 7.56C382.896 7.77333 382.523 8.37333 382.336 9.36L380.496 19.76ZM372.936 10.32L357.416 8.68H373.416L372.936 10.32ZM372.176 14.2L356.456 12.52H372.456L372.336 13.32C372.31 13.48 372.283 13.64 372.256 13.8C372.23 13.9333 372.203 14.0667 372.176 14.2ZM371.776 18.04L356.016 16.36H371.896C371.816 16.9467 371.776 17.5067 371.776 18.04ZM372.096 21.88L356.536 20.2H371.816C371.87 20.4933 371.91 20.7867 371.936 21.08C371.99 21.3467 372.043 21.6133 372.096 21.88ZM374.216 25.56L360.376 24.08H373.016C373.363 24.6933 373.763 25.1867 374.216 25.56Z" fill="white"/>
</svg>
